# xmcd CD database file
#
# Track frame offsets:
#	150
#	22740
#	44693
#	71409
#	94907
#	111852
#	130044
#	147949
#	176968
#	192320
#	232028
#	249110
#	265593
#
# Disc length: 3652 seconds
#
# Revision: 0
# Processed by: cddbd v1.4PL0 Copyright (c) Steve Scherf et al.
# Submitted via: CDex 1.40Release
#
DISCID=b20e420d
DTITLE=Blue Family - Here Comes The Blues
DYEAR=2002
DGENRE=Blues
TTITLE0=Help Me
TTITLE1=Buzz Me
TTITLE2=Murder In The 1st Degree
TTITLE3=Rock This House
TTITLE4=Mellow Down Easy
TTITLE5=Shake Rattle and Roll
TTITLE6=Black, Brown and White
TTITLE7=Good Morning Little Schoolgirl
TTITLE8=Sinister Woman
TTITLE9=Have You Ever Loved A Woman
TTITLE10=Love and Money
TTITLE11=Caldonia
TTITLE12=Jumpin' All Night Long
EXTD=YEAR: 2002 ID3G: 0
EXTT0=
EXTT1=
EXTT2=
EXTT3=
EXTT4=
EXTT5=
EXTT6=
EXTT7=
EXTT8=
EXTT9=
EXTT10=
EXTT11=
EXTT12=
PLAYORDER=
